<?xml version="1.0" standalone="no"?>
<!DOCTYPE svg PUBLIC "-//W3C//DTD SVG 20010904//EN"
 "http://www.w3.org/TR/2001/REC-SVG-20010904/DTD/svg10.dtd">
<svg version="1.0" xmlns="http://www.w3.org/2000/svg"
 width="626.000000pt" height="626.000000pt" viewBox="0 0 626.000000 626.000000"
 preserveAspectRatio="xMidYMid meet">

<g transform="translate(0.000000,626.000000) scale(0.100000,-0.100000)"
fill="#000000" stroke="none">
<path d="M1765 4045 c-60 -16 -85 -44 -85 -96 0 -56 118 -839 132 -872 6 -15
24 -35 39 -43 25 -13 37 -13 89 0 69 15 96 35 105 76 3 16 -8 119 -25 231 -24
158 -28 204 -18 210 19 12 230 78 258 81 l25 3 5 -272 c5 -251 6 -273 25 -300
11 -15 27 -41 35 -57 25 -49 89 -114 155 -157 56 -37 65 -47 75 -88 9 -35 26
-59 79 -111 65 -64 68 -70 74 -124 6 -64 51 -168 97 -226 19 -24 30 -49 30
-69 l0 -31 270 0 270 0 0 31 c0 20 11 45 30 69 46 58 91 162 97 226 6 54 9 60
74 124 54 52 70 76 79 113 10 38 19 51 54 71 71 42 134 104 183 184 l48 77 5
270 5 270 25 -3 c28 -3 239 -69 258 -81 10 -6 6 -52 -18 -210 -17 -112 -28
-215 -25 -231 9 -40 36 -61 104 -76 71 -17 103 -8 125 33 15 30 136 812 136
882 0 57 -30 85 -104 101 -65 13 -109 2 -127 -32 -6 -11 -22 -95 -36 -186 -13
-92 -25 -168 -27 -169 -1 -1 -58 16 -126 38 -240 77 -359 101 -693 144 -258
33 -415 33 -674 0 -331 -42 -501 -78 -727 -155 -49 -16 -91 -29 -92 -27 -1 1
-12 67 -23 147 -28 194 -35 217 -71 235 -35 18 -49 18 -115 0z m1770 -324 c99
-12 189 -23 200 -26 26 -6 125 -176 125 -214 0 -15 -9 -63 -20 -106 -11 -43
-20 -107 -20 -142 l0 -63 -30 0 c-16 0 -40 -5 -54 -11 -25 -12 -56 -63 -56
-92 0 -9 -13 -17 -34 -20 -55 -9 -104 -37 -166 -94 -64 -59 -83 -63 -146 -33
-46 23 -74 67 -74 117 0 35 34 126 49 131 13 4 15 88 2 97 -5 3 -17 30 -26 61
-18 64 -76 128 -124 139 -78 17 -158 -43 -186 -139 -9 -31 -21 -58 -26 -61
-13 -9 -11 -93 2 -97 15 -5 49 -96 49 -131 0 -51 -30 -98 -74 -118 -64 -29
-82 -25 -146 34 -61 57 -111 85 -164 94 -28 4 -34 10 -44 49 -13 47 -34 64
-92 73 l-35 6 -7 85 c-4 47 -14 108 -22 135 -9 28 -16 63 -16 79 0 34 98 214
120 221 8 2 101 13 205 24 105 11 204 22 220 25 70 10 423 -4 590 -23z"/>
<path d="M1505 3881 c-26 -11 -51 -40 -58 -69 -7 -31 89 -665 104 -691 19 -29
56 -42 98 -35 92 17 120 60 102 161 -6 32 -29 179 -51 327 -46 310 -49 316
-129 315 -25 0 -55 -4 -66 -8z"/>
<path d="M4623 3868 c-20 -21 -29 -65 -73 -355 -54 -361 -54 -380 -1 -407 67
-34 132 -28 159 15 16 26 112 656 105 691 -9 45 -46 71 -111 76 -50 3 -60 1
-79 -20z"/>
<path d="M1303 3728 c-76 -16 -96 -69 -74 -188 7 -36 6 -46 -7 -56 -29 -21
-10 -144 22 -144 10 0 18 -22 27 -75 10 -64 16 -79 42 -101 26 -22 37 -25 71
-19 51 8 83 28 99 62 9 21 6 63 -17 222 -15 108 -32 212 -37 232 -16 62 -55
83 -126 67z"/>
<path d="M4883 3730 c-12 -5 -29 -19 -37 -32 -15 -22 -76 -393 -76 -459 0 -63
95 -116 160 -89 33 14 46 40 61 125 7 44 16 65 25 65 17 0 29 29 37 88 4 33 2
45 -11 53 -15 10 -16 20 -8 90 11 87 3 118 -36 142 -31 20 -88 28 -115 17z"/>
</g>
</svg>
